<?xml version="1.0" standalone="no"?>
<!DOCTYPE svg PUBLIC "-//W3C//DTD SVG 20010904//EN"
 "http://www.w3.org/TR/2001/REC-SVG-20010904/DTD/svg10.dtd">
<svg version="1.0" xmlns="http://www.w3.org/2000/svg"
 width="18.000000pt" height="12.000000pt" viewBox="0 0 18.000000 12.000000"
 preserveAspectRatio="xMidYMid meet">

<g transform="translate(0.000000,12.000000) scale(0.100000,-0.100000)"
fill="#000000" stroke="none">
<path d="M30 115 c0 -2 9 -9 20 -15 16 -9 20 -8 20 5 0 8 -9 15 -20 15 -11 0
-20 -2 -20 -5z"/>
<path d="M80 95 c0 -22 -4 -25 -40 -25 -22 0 -40 -4 -40 -10 0 -5 18 -10 40
-10 32 0 40 -4 39 -17 0 -11 -3 -13 -6 -5 -2 6 -9 12 -14 12 -6 0 -7 -5 -3
-12 4 -6 3 -8 -3 -5 -6 4 -19 0 -29 -8 -17 -13 -11 -14 56 -14 67 0 73 1 56
14 -10 8 -23 12 -27 9 -5 -3 -9 2 -9 10 0 12 10 16 40 16 22 0 40 5 40 10 0 6
-18 10 -40 10 -36 0 -40 3 -40 25 0 14 -4 25 -10 25 -5 0 -10 -11 -10 -25z"/>
<path d="M110 100 c0 -23 18 -27 26 -5 4 8 10 12 15 9 5 -3 7 -10 4 -15 -4 -5
1 -9 9 -9 9 0 16 5 16 10 0 6 -5 10 -11 10 -5 0 -8 4 -5 8 2 4 -9 9 -25 10
-23 2 -29 -2 -29 -18z"/>
<path d="M6 103 c-13 -14 -5 -23 19 -21 14 1 25 3 25 5 0 7 -38 21 -44 16z"/>
<path d="M0 30 c0 -13 17 -13 25 0 3 6 -1 10 -9 10 -9 0 -16 -4 -16 -10z"/>
<path d="M130 34 c0 -1 11 -9 25 -18 24 -16 25 -16 25 4 0 15 -6 19 -25 18
-14 -1 -25 -3 -25 -4z"/>
</g>
</svg>
