<?xml version="1.0" encoding="UTF-8"?>
<svg version="1.1" viewBox="0 0 2048 2048" width="1280" height="1280" xmlns="http://www.w3.org/2000/svg">
<path transform="translate(593)" d="m0 0h150v1l59 7 35 6 30 7 27 8 31 12 23 11 19 11 13 9 12 9 14 12 15 15 9 11 13 18 9 16 8 16 8 20 7 24 5 24 3 24 1 14 1 124 2 11 113 226 4 14v21l-5 15-7 11-9 10-14 8-12 4-7 1-54 1-11-1v160l-1 49-3 26-5 25-7 24-8 21-12 25-9 16-13 19-11 14-18 20-9 9-8 7-17 14-24 16-22 12-15 7-21 8-26 8-11 2v108l-1 17h67l29 2 26 4 23 6 21 7 23 10 23 12 24 16 13 10 15 13 20 20 9 11 11 14 12 18 14 25 11 25 8 24 6 24 4 27 1 12 1 37v272l-1 81-4 14-6 11-4 6h-2l-2 4-13 9-16 7h-987l-15-7-10-7-9-9-8-13-4-13-1-13v-369l2-25 4-25 5-20 10-30 8-18 12-23 13-20 9-12 13-16 15-16 13-12 14-11 18-13 20-12 15-8 26-11 25-8 23-5 19-3 28-2h68v-125l-11-2-24-7-21-8-25-12-14-8-18-12-18-14-12-11-13-12-9-10-12-14-12-17-13-21-8-16-8-17-8-22-7-27-4-22-2-19-1-19-1-191-67-1-15-4-12-7-10-9-9-14-4-10-2-12 1-15 4-13 16-33 82-164 9-17 7-16 1-119 2-30 4-27 6-26 10-29 13-27 11-17 9-12 9-11 8-9 8-7 10-9 13-10 15-10 19-11 27-13 27-10 27-8 30-7 49-8 34-4zm24 121-35 2-44 5-31 6-27 7-20 7-25 12-15 10-11 9-13 13-10 14-8 15-7 21-4 18-2 21-1 47v31l597 1 2-1v-73l-2-24-4-19-7-21-8-16-10-14-11-12-17-13-19-11-20-9-24-8-34-8-25-4-38-4-36-2zm-275 359-5 8-55 110v1l263 1h335l165-1-2-6-9-19-8-16-10-19-10-21-18-36-4-2zm23 240-1 40v139l1 24 4 27 5 17 9 21 7 13 11 16 12 14 11 11 17 13 14 9 23 11 18 6 25 5 34 3 13 4 12 7 8 7 9 13 5 13 1 5 1 54v147l-1 58-3 12-8 15-8 9-11 7-12 5-17 3-6 1 2 5 7 10 106 159 7 10 3 4 4-2 7-11 11-16 106-159-22-3-13-5-11-8-5-5-6-7-6-12-3-11-1-12v-241l2-13 7-16 7-9 10-9 12-6 10-3 42-4 21-5 17-6 19-9 19-12 14-12 10-9 9-10 13-18 8-14 9-21 6-21 3-17 1-10v-201zm570 731-7 9-29 44-29 43-29 44-29 43-34 51-1 2 69 1 14 2 12 5 13 9 9 11 6 12 3 12 1 37v151l5 1h172l2-1v-311l-3-23-4-16-6-18-8-17-10-16-9-12-11-12-10-10-17-13-15-9-19-9-21-7zm-543 0-21 5-19 7-21 11-12 8-11 9-10 9-9 9-11 14-9 14-9 17-7 18-6 24-2 18-1 44v269l5 1h172l2-1 1-182 2-13 7-16 7-9 9-8 10-6 13-4 8-1 70-1-2-5-29-43-106-159-17-26-3-3zm153 357-1 26v93l5 1h232l2-1v-119z"/>
<path transform="translate(1379,967)" d="m0 0h10l14 3 16 7 470 235 11 7 12 11 8 14 4 13v22l-4 13-7 12-9 10-14 9-444 222-1 83v257l-1 112-4 14-6 11-8 10-13 9-14 6-3 1h-26l-15-7-10-7-9-9-8-13-4-13-1-13v-962l2-12 5-13 8-11 9-9 14-8 11-3zm66 159-1 66v214l1 3 4-1 278-139v-2l-23-12-258-129z"/>
<path transform="translate(167,2047)" d="m0 0"/>
</svg>
