<?xml version="1.0" standalone="no"?>
<!DOCTYPE svg PUBLIC "-//W3C//DTD SVG 20010904//EN"
 "http://www.w3.org/TR/2001/REC-SVG-20010904/DTD/svg10.dtd">
<svg version="1.0" xmlns="http://www.w3.org/2000/svg"
 width="64.000000pt" height="64.000000pt" viewBox="0 0 64.000000 64.000000"
 preserveAspectRatio="xMidYMid meet">

<g transform="translate(0.000000,64.000000) scale(0.100000,-0.100000)"
fill="#ffffff" stroke="none">
<path d="M80 370 l0 -250 90 0 c53 0 90 4 90 10 0 6 -33 10 -80 10 l-80 0 0
230 0 230 190 0 190 0 0 -25 c0 -14 5 -25 10 -25 6 0 10 16 10 35 l0 35 -210
0 -210 0 0 -250z"/>
<path d="M180 540 l0 -30 110 0 c67 0 110 4 110 10 0 6 -40 10 -100 10 -60 0
-100 4 -100 10 0 6 40 10 100 10 60 0 100 4 100 10 0 6 -43 10 -110 10 l-110
0 0 -30z"/>
<path d="M409 501 c-20 -20 -29 -39 -29 -61 0 -43 47 -90 90 -90 43 0 90 47
90 90 0 43 -47 90 -90 90 -22 0 -41 -9 -61 -29z m108 -13 c29 -27 29 -65 1
-95 -27 -29 -65 -29 -95 -1 -29 27 -29 65 -1 95 27 29 65 29 95 1z"/>
<path d="M437 473 c-4 -3 -2 -12 4 -20 8 -9 8 -17 0 -26 -14 -18 -2 -30 16
-16 9 8 17 8 26 0 18 -14 30 -2 16 16 -8 9 -8 17 0 26 14 18 2 30 -16 16 -9
-8 -17 -8 -26 0 -8 6 -17 8 -20 4z"/>
<path d="M210 470 c0 -6 32 -10 75 -10 43 0 75 4 75 10 0 6 -32 10 -75 10 -43
0 -75 -4 -75 -10z"/>
<path d="M150 420 c0 -6 42 -10 105 -10 63 0 105 4 105 10 0 6 -42 10 -105 10
-63 0 -105 -4 -105 -10z"/>
<path d="M150 370 c0 -6 45 -10 115 -10 70 0 115 4 115 10 0 6 -45 10 -115 10
-70 0 -115 -4 -115 -10z"/>
<path d="M150 320 c0 -6 40 -10 100 -10 60 0 100 4 100 10 0 6 -40 10 -100 10
-60 0 -100 -4 -100 -10z"/>
<path d="M480 315 c0 -8 5 -15 10 -15 6 0 10 7 10 15 0 8 -4 15 -10 15 -5 0
-10 -7 -10 -15z"/>
<path d="M357 284 c-38 -21 -27 -29 18 -14 50 16 96 6 131 -31 24 -25 29 -39
29 -79 0 -43 -5 -54 -33 -82 -28 -28 -39 -33 -82 -33 -40 0 -54 5 -79 29 -37
35 -47 81 -31 131 15 46 6 56 -14 16 -62 -118 78 -250 192 -181 18 11 41 34
52 52 69 114 -66 256 -183 192z"/>
<path d="M150 270 c0 -6 28 -10 65 -10 37 0 65 4 65 10 0 6 -28 10 -65 10 -37
0 -65 -4 -65 -10z"/>
<path d="M150 220 c0 -5 25 -10 55 -10 30 0 55 5 55 10 0 6 -25 10 -55 10 -30
0 -55 -4 -55 -10z"/>
<path d="M350 212 c0 -8 43 -32 55 -32 15 0 1 19 -20 28 -31 14 -35 15 -35 4z"/>
<path d="M453 208 c-20 -10 -32 -28 -18 -28 12 0 55 24 55 32 0 10 -9 9 -37
-4z"/>
<path d="M360 170 c0 -5 5 -10 10 -10 6 0 10 5 10 10 0 6 -4 10 -10 10 -5 0
-10 -4 -10 -10z"/>
<path d="M460 170 c0 -5 5 -10 10 -10 6 0 10 5 10 10 0 6 -4 10 -10 10 -5 0
-10 -4 -10 -10z"/>
<path d="M388 119 c-28 -16 -21 -30 7 -17 19 8 31 8 50 0 26 -12 33 -4 13 16
-15 15 -47 15 -70 1z"/>
</g>
</svg>
