<?xml version="1.0" encoding="UTF-8"?>
<svg version="1.1" viewBox="0 0 2048 2048" width="1280" height="1280" xmlns="http://www.w3.org/2000/svg">
<path transform="translate(390,599)" d="m0 0 37 2 34 5 30 7 20 6 31 12 33 16 15 9 19 12 26 20 11 10 8 7 14 13 7 8 11 12 13 17 14 19 19 32 14 29 11 29 8 27 6 27 4 26 2 26v33l-2 22-5 28-7 30-8 30-13 41-19 53-13 36-15 37-18 43-16 38-17 37-13 28-15 33-12 25-50 100-12 22-13 24-12 22-13 24-16 27-19 32-12 20-9 14-8 10-10 9-12 7-11 4-12 2h-15l-14-3-16-8-10-8-9-10-11-17-19-32-17-28-13-23-12-22-13-24-12-22-13-24-17-34-9-17-9-19-9-17-11-23-16-34-15-33-18-39-14-33-19-46-14-34-10-27-19-53-14-41-12-42-8-34-6-33-1-1v-71l2-7 6-36 9-34 13-35 16-33 16-27 12-17 10-13 8-10 5-6h2l2-4 15-16 16-15 8-7 13-10 18-13 19-12 16-9 16-8 17-8 30-11 29-8 24-5 28-4zm-22 108-19 2-23 4-25 7-22 8-27 13-24 15-18 14-20 18-6 6v2h-2l-7 8-12 15-12 17-10 17-8 16-9 21-7 21-6 26-3 19-1 12v42l3 24 4 20 6 22 8 22 13 27 13 21 12 16 9 11 14 15 9 9 8 7 15 12 18 12 21 12 22 10 25 9 30 7 21 3 13 1h35l20-2 23-4 23-6 27-10 27-13 16-10 13-9 13-10 15-14 8-7 7-8 10-11 14-19 8-13 9-15 11-24 10-30 5-20 4-27 1-15v-29l-2-23-5-27-6-22-10-27-8-17-13-22-9-13-9-12-18-20-11-11-8-7-14-11-16-11-19-11-24-12-25-9-27-7-26-4-13-1z"/>
<path transform="translate(1709,35)" d="m0 0h41l24 3 22 5 27 9 29 14 19 12 18 14 12 11 3 2v2h2v2h2l7 8 9 10 12 17 10 16 10 19 9 23 7 24 4 22 2 19v27l-3 23-6 25-11 39-8 24-18 49-25 60-9 21-17 36-13 28-8 17-9 17-16 32-16 31-10 18-14 26-17 28-13 22-9 12-9 6-7 3-6 1h-8l-13-4-10-9-7-9-17-29-12-20-16-29-15-28-20-38-23-46-13-28-16-35-11-25-17-41-10-25-19-52-10-34-9-33-4-23-1-8v-31l3-24 5-23 10-30 12-25 8-13 8-12 11-14 9-10 1-2h2l2-4 16-15 16-12 10-7 15-9 16-8 19-8 18-6 23-5zm20 71-31 3-19 5-18 6-26 14-13 10-14 12-8 8-11 14-7 10-6 10-8 16-8 24-3 17-2 16v23l3 24 8 27 6 14 13 23 12 14 9 11 14 12 13 10 26 14 10 4 27 8 29 3h11l28-3 28-8 16-7 23-13 14-12 11-9 12-14 10-13 14-26 8-24 3-10 3-27v-19l-3-27-9-29-9-19-10-17-11-13-9-11-14-12-15-11-26-14-28-9-17-3z"/>
<path transform="translate(222,1732)" d="m0 0 5 1 8 14 17 28 13 22 7 11 9 12 9 10 11 10 10 7 16 9 17 7 16 4 11 2 11 1h14l22-3 20-6 18-8 14-9 16-13 11-12 12-17 17-29 18-30 7-11 8 1 40 9 34 10 23 8 35 15 22 12 15 10 16 12 17 17 9 14 5 10 2 9v14l-4 13-7 12-7 9-4 5-8 7-12 10-17 11-23 12-25 12-25 9-33 11-37 9-33 7-42 6-36 4-60 3h-32l-63-3-56-7-30-5-52-12-40-13-24-9-25-12-20-10-11-7-11-8-11-9-12-12-10-14-7-14v-23l7-16 8-12 7-8h2l2-4 10-9 18-13 17-10 23-12 37-15 39-12 38-9z"/>
<path transform="translate(375,776)" d="m0 0h27l18 2 20 4 20 6 16 7 28 15 13 10 13 11 8 7 11 12 11 14 8 11 17 32 7 19 6 25 2 15 1 15v14l-2 25-5 24-8 24-7 15-5 10-9 14-11 14-11 13-1 2h-2l-2 4-11 9-13 11-18 12-21 11-19 7-17 5-21 4-20 2h-19l-21-2-25-5-24-8-25-12-14-9-16-13-14-12-8-8-9-11-12-15-9-15-8-16-6-15-6-20-4-19-2-17v-32l4-27 6-22 7-19 8-17 13-20 9-11 11-13 6-7 11-9 13-11 15-10 12-7 20-9 21-7 25-5z"/>
<path transform="translate(1582,734)" d="m0 0 4 2 16 29 13 23 19 32 9 14 9 11 9 10 17 12 18 8 9 3 23 3 15-1 16-3 20-8 11-7 12-9 9-10 10-13 13-22 9-15 8-14 15-27 7-12 3-6 4 1 21 10 19 12 14 11 10 9 9 9 11 15 8 15 5 16 1 6v19l-4 17-7 15-9 14-6 7h-2l-2 4-10 10-12 9-21 14-26 13-21 8-26 8-22 5-29 5-42 3h-17l-45-3-42-8-30-9-20-8-29-14-15-10-14-10-23-23-7-10-8-15-5-16-1-5v-19l3-14 5-13 8-14 11-14 16-16 12-9 17-11 23-12z"/>
<path transform="translate(1721,176)" d="m0 0h20l13 2 18 6 17 9 10 8 10 9 11 14 9 17 6 19 2 16v11l-2 18-7 21-9 16-9 11-6 7-16 12-15 8-18 6-14 2h-23l-13-2-17-6-15-8-13-10-10-10-11-15-8-16-5-17-2-14v-15l2-15 7-21 10-18 11-14 6-5h2v-2l13-9 15-8 20-6z"/>
<path transform="translate(1591,1129)" d="m0 0h72l12 2 8 4 9 8 5 8 3 12-1 10-4 10-9 10-8 5-7 2-8 1h-72l-13-3-10-7-6-8-4-9-1-4v-10l4-12 6-8 8-6 6-3z"/>
<path transform="translate(1797,1159)" d="m0 0h8l11 3 19 9 22 12 22 14 11 9 6 9 3 9v12l-4 11-8 10-10 6-11 3-11-1-12-5-22-14-18-10-21-11-9-8-6-12-1-4v-13l5-12 7-8 5-4 10-4z"/>
<path transform="translate(1935,1697)" d="m0 0h8l11 3 10 6 7 9 4 9 1 12-2 8-5 10-9 11-12 14-11 12-9 9-8 7-10 8-9 4-5 1h-10l-10-3-9-6-7-9-4-11v-14l5-12 11-12 26-26 8-10 9-10 10-7z"/>
<path transform="translate(1165,1129)" d="m0 0h70l13 2 10 5 6 5 6 9 3 10v11l-4 11-7 9-9 6-9 3-8 1h-72l-12-3-9-6-7-8-5-12v-12l3-10 6-9 7-6 8-4z"/>
<path transform="translate(1130,811)" d="m0 0h64l15 2 10 5 5 4 6 8 4 12v10l-3 10-6 9-7 6-8 4-10 2h-76l-12-3-8-6-7-8-4-8-1-4v-13l4-11 6-8 8-6 7-3z" fill="#010101"/>
<path transform="translate(993,860)" d="m0 0h11l10 3 8 6 7 8 4 9 1 4v10l-3 10-9 14-13 17-16 32-6 8-9 7-9 3h-12l-10-3-9-6-6-7-5-11-1-8 3-16 8-19 10-18 11-16 12-14 8-7 10-5z"/>
<path transform="translate(1957,1297)" d="m0 0 11 1 10 4 8 7 6 7 10 18 10 19 12 28 3 10v12l-4 10-4 6-4 5-8 5-10 3h-11l-10-3-9-6-7-9-8-17-9-20-14-26-4-11-1-9 2-10 6-11 8-7 8-4z"/>
<path transform="translate(970,1057)" d="m0 0h17l10 4 10 9 11 13 9 11 16 13 11 9 6 8 4 9v17l-6 12-6 7-8 5-12 3h-9l-11-4-11-7-13-10-13-12-14-15-11-15-5-10-2-7v-8l3-12 6-9 7-6 8-4z"/>
<path transform="translate(1069,1835)" d="m0 0h48l19 1 10 3 9 6 7 8 4 9 1 4v11l-4 11-6 8-7 6-11 4-4 1h-79l-11-3-11-8-7-11-2-6v-14l4-11 6-8 5-4 10-5z" fill="#010101"/>
<path transform="translate(2006,1501)" d="m0 0h14l9 3 9 7 7 10 1 4 2 1v36h-2l-1 13-6 31-4 14-6 10-9 7-11 4-7 1-14-3-9-6-7-8-5-11v-17l6-33 4-33 4-12 6-8 6-5 8-4z"/>
<path transform="translate(1281,1835)" d="m0 0h47l21 1 11 3 8 6 8 9 3 8 1 4v11l-3 9-5 8-9 8-10 4-5 1h-79l-11-3-8-6-7-8-4-8-1-5v-12l4-10 6-9 10-7 5-2z" fill="#010101"/>
<path transform="translate(1494,1835)" d="m0 0h47l21 1 11 3 11 8 6 9 3 10v11l-3 10-6 9-8 6-10 4-5 1h-79l-11-3-8-6-7-8-4-9-1-4v-10l3-11 8-11 12-7 8-2z" fill="#010101"/>
<path transform="translate(1763,1819)" d="m0 0h13l12 5 9 8 6 11 1 4v15l-4 10-7 9-10 6-23 7-26 6-23 4-16 1-10-3-9-6-7-8-4-9-1-4v-12l4-11 6-8 8-6 10-4 34-6 31-8z"/>
<path transform="translate(1378,1129)" d="m0 0h69l12 2 10 5 8 7 6 11 2 9-1 13-6 11-4 5-10 6-14 3h-72l-13-3-9-6-6-7-5-10-1-4v-12l4-11 6-8 8-6 10-4z"/>
<path transform="translate(1344,811)" d="m0 0h30l14 2 10 5 6 5 6 9 3 11v9l-3 10-6 9-8 7-11 4-5 1h-42l-13-4-9-7-7-11-2-5-1-11 3-12 5-8 7-7 10-5z" fill="#010101"/>
<path transform="translate(890,1835)" d="m0 0h20l18 2 12 6 8 9 4 8 2 8v7l-3 11-6 9-7 6-8 4-9 2-29 1-14-1-10-3-9-6-6-7-4-8-2-8 1-12 4-10 9-10 12-6z"/>
<path transform="translate(2047,1565)" d="m0 0"/>
<path transform="translate(0,1021)" d="m0 0"/>
</svg>
