<?xml version="1.0" standalone="no"?>
<!DOCTYPE svg PUBLIC "-//W3C//DTD SVG 20010904//EN"
 "http://www.w3.org/TR/2001/REC-SVG-20010904/DTD/svg10.dtd">
<svg version="1.0" xmlns="http://www.w3.org/2000/svg"
 width="64.000000pt" height="64.000000pt" viewBox="0 0 64.000000 64.000000"
 preserveAspectRatio="xMidYMid meet">

<g transform="translate(0.000000,64.000000) scale(0.100000,-0.100000)"
fill="#ffffff" stroke="none">
<path d="M417 552 c-25 -28 -21 -78 11 -123 15 -21 34 -39 42 -39 8 0 27 18
43 39 32 46 36 100 9 124 -25 23 -85 22 -105 -1z m91 -47 c1 -18 -6 -40 -18
-55 l-20 -25 -20 25 c-19 25 -27 70 -13 84 4 4 21 6 38 4 25 -3 30 -8 33 -33z"/>
<path d="M84 336 c-30 -30 -34 -41 -34 -84 0 -44 6 -57 56 -126 30 -42 59 -76
64 -76 5 0 34 34 64 76 50 69 56 82 56 126 0 43 -4 54 -34 84 -30 30 -40 34
-86 34 -46 0 -56 -4 -86 -34z m151 -21 c39 -38 34 -89 -16 -158 -22 -32 -44
-57 -49 -57 -5 0 -27 25 -49 57 -31 43 -41 66 -41 95 0 54 35 88 90 88 30 0
47 -6 65 -25z"/>
<path d="M136 284 c-31 -30 -9 -84 34 -84 24 0 50 26 50 50 0 24 -26 50 -50
50 -10 0 -26 -7 -34 -16z"/>
<path d="M423 355 c-3 -9 -3 -19 1 -22 8 -9 37 18 30 28 -8 14 -24 11 -31 -6z"/>
<path d="M381 296 c-8 -10 -9 -16 -1 -21 13 -8 30 3 30 21 0 18 -14 18 -29 0z"/>
<path d="M370 236 c0 -18 17 -29 30 -21 8 5 7 11 -1 21 -15 18 -29 18 -29 0z"/>
<path d="M420 186 c0 -18 17 -29 30 -21 8 5 7 11 -1 21 -15 18 -29 18 -29 0z"/>
<path d="M470 126 c0 -18 16 -29 30 -21 13 8 1 35 -16 35 -8 0 -14 -6 -14 -14z"/>
<path d="M525 80 c-7 -12 2 -30 16 -30 12 0 12 27 0 35 -5 3 -12 1 -16 -5z"/>
<path d="M220 65 c0 -8 9 -15 20 -15 11 0 20 7 20 15 0 8 -9 15 -20 15 -11 0
-20 -7 -20 -15z"/>
<path d="M300 65 c0 -8 9 -15 20 -15 11 0 20 7 20 15 0 8 -9 15 -20 15 -11 0
-20 -7 -20 -15z"/>
<path d="M370 65 c0 -8 9 -15 20 -15 11 0 20 7 20 15 0 8 -9 15 -20 15 -11 0
-20 -7 -20 -15z"/>
<path d="M450 65 c0 -8 9 -15 20 -15 11 0 20 7 20 15 0 8 -9 15 -20 15 -11 0
-20 -7 -20 -15z"/>
</g>
</svg>
