<?xml version="1.0" encoding="UTF-8"?>
<svg version="1.1" viewBox="0 0 2048 2048" width="1280" height="1280" xmlns="http://www.w3.org/2000/svg">
<path transform="translate(354,244)" d="m0 0h195l3 2 2 23 4 15 7 14 8 10 10 9 14 8 14 5 14 2 94 1h332l78-1 17-2 12-4 12-6 10-8 5-5 8-10 7-15 4-16 1-21 6-1h189l20 1 19 3 16 5 18 8 14 8 12 9 10 9 12 12 11 15 8 14 7 15 6 19 3 17 1 14v646l-7 7-6 7h-2l-2 4-97 97h-3l-1-646-3-10-6-9-7-6-9-4-4-1h-1063l-10 4-7 6h-2l-8 16-1 5v1273l3 12 7 10 6 5 11 5 15 2h966l81-1 10-3 9-6 8-9 3-7 1-5 1-236 7-8 103-103 4-5h3v466l-2 22-5 20-8 20-10 18-10 13-9 10-8 8-14 11-19 11-19 8-21 6-8 2h-1090l-15-4-16-5-17-7-17-10-16-13-15-15-10-13-9-15-8-17-6-20-3-17-1-13v-1508l3-23 6-21 5-12 7-14 7-11 8-10 11-12 12-11 10-7 15-9 18-8 18-5 16-3z"/>
<path transform="translate(1620,1029)" d="m0 0 4 1 7 8 132 132-2 5-482 482-11 8-10 4-4 1h-115l-7-3-6-5-3-6-1-4v-115l4-11 6-9 32-32 5-6 7-6 5-6 7-6 5-6 7-6 5-6 7-6 5-6 7-6 5-6 7-6 5-6 7-6 5-6 7-6 5-6 7-6 5-6 7-6 5-6 7-6 5-6 7-6 5-6 7-6 5-6 7-6 5-6 7-6 5-6 6-5 6-7 7-6 5-6 7-6 5-6 7-6 5-6 7-6 5-6 7-6 5-6 7-6 5-6 7-6 5-6 7-6 5-6 7-6 5-6 7-6 5-6 7-6 5-6 7-6 5-6 7-6 5-6 7-6 5-6 7-6 5-6 7-6 5-6 7-6 5-6 7-6 5-6 7-6 5-6 7-6 5-5z"/>
<path transform="translate(857)" d="m0 0h43l9 3 17 6 15 8 12 9 12 11 13 17 10 21 4 13 3 17 1 9 137 1 9 2 11 6 7 7 7 14 1 7v107l-2 11-4 8-9 10-8 5-12 3h-511l-12-4-9-7-7-9-4-11-1-8v-103l3-14 7-11 8-7 8-4 7-2h140l1-14 4-19 5-13 7-14 10-14 5-6h2l2-4 11-9 14-9 15-7 13-4zm19 58-14 2-16 8-10 9-8 11-5 14-2 12 3 1h111l1-5-4-16-7-13-8-9-14-9-12-4z"/>
<path transform="translate(846,967)" d="m0 0h397l18 1 8 3 7 5 6 9 2 6v13l-6 12-8 7-9 3-26 1h-395l-12-2-10-7-6-9-3-10 2-12 6-10 10-7 6-2z"/>
<path transform="translate(835,728)" d="m0 0h421l10 2 8 5 6 7 4 9v14l-5 10-7 7-9 4-7 1h-421l-9-3-6-4-6-7-4-9-1-7 3-12 6-8 6-5 6-3z"/>
<path transform="translate(836,1207)" d="m0 0h417l13 2 9 6 7 9 2 6v14l-5 10-5 5-5 4-10 3h-425l-11-4-8-8-5-10v-14l4-9 6-7 11-6z"/>
<path transform="translate(1712,946)" d="m0 0h16l11 4 11 8 86 86 7 11 3 8 1 4v9l-4 13-6 9-11 12-28 28h-2l-2 4-3 2-15-16-80-80-6-5-7-8-19-19-7-6-5-5-4-5 8-7 20-20 5-6 8-7 10-9z"/>
<path transform="translate(676,885)" d="m0 0h9l11 4 8 7 5 9 1 4v11l-4 10-8 10h-2l-2 4h-2l-2 4h-2l-2 4h-2l-2 4h-2v2h-2v2h-2v2h-2v2h-2l-2 4h-2v2h-2v2h-2v2h-2v2h-2v2h-2v2h-2v2h-2v2h-2v2h-2v2h-2v2h-2v2h-2v2h-2v2h-2v2h-2v2h-2v2h-2v2h-2l-2 4h-2v2h-2v2h-2v2h-2v2h-2v2h-2v2h-2v2h-2v2h-2v2h-2v2h-2l-2 4-8 8h-2l-2 4h-2v2l-8 6-9 4h-14l-9-4-10-9-60-60-6-9-2-6v-11l4-10 7-8 10-5 3-1h10l11 4 10 9 38 38 4-2 91-91 10-5z"/>
<path transform="translate(674,646)" d="m0 0h13l10 4 8 8 4 8 1 3v11l-3 8-6 9-113 113-9 5-8 2h-8l-10-4-11-9-7-8-7-7-7-6-5-6-7-6-5-6-4-3v-2l-4-2v-2l-4-2-12-13-5-9-1-4v-10l4-11 5-5 6-5 7-3 8-1 10 2 8 5 12 11 33 33 3 1v-2h2l2-4h2l2-4h2l2-4h2l2-4 4-4h2v-2h2v-2h2v-2h2v-2l7-6 1-2h2v-2h2v-2h2v-2h2v-2h2v-2h2v-2h2v-2h2v-2l7-6 5-6 4-4h2l2-4h2l2-4h2l2-4h2l2-4 9-8 7-4z"/>
<path transform="translate(674,1125)" d="m0 0h13l9 4 8 7 5 9 1 3v12l-3 8-7 9-112 112-8 5-7 2h-11l-9-4-11-9-5-6-6-5-6-7-7-6-7-8-8-7-6-7-8-7-9-10-5-9-1-4v-10l4-10 8-9 8-4 3-1h13l9 4 8 7 5 4 6 7 6 5 7 8 7 7 8 7 3 2 94-94z"/>
<path transform="translate(327,2047)" d="m0 0 4 1z"/>
<path transform="translate(901)" d="m0 0 2 1z"/>
<path transform="translate(855)" d="m0 0"/>
</svg>
