<?xml version="1.0" encoding="UTF-8"?>
<svg version="1.1" viewBox="0 0 2052 2052" width="1280" height="1280" xmlns="http://www.w3.org/2000/svg">
<path transform="translate(918,812)" d="m0 0h138l4 2 13 38 15 42 20 57 12 33 10 29 13 37 17 48 6 18 1-301 2-3h127l3 3 1 631 2-3 17-52 16-50 17-52 16-50 17-53 10-31 19-58 8-24 2-2h157l3 2 13 41 12 38 10 30 10 32 11 33 16 50 16 49 10 32 10 31 16 49 13 40v3h-131l-3-8-16-49-6-20-15-1-109-1-3 10-12 38-10 30-1 1-132 1h-106l-9-1-1-1-1-328-14 49-19 65-12 41-22 75-25 85-4 12-1 2h-280l-5-10-13-31-17-40-32-76-17-40-1 84v112l-1 1-112 1-7-1-1-1v-424l2-2h141l5 3 15 36 20 47 13 31 19 45 11 25 3 7 1-193 6-1h112l3 3v400l2-2 2-3 36-123 17-58 15-51 24-82 3-10v-9l-19-53-17-48-15-42-12-34-15-42-22-62-15-42zm584 419-11 35-11 33-10 32v1h65l-1-6-6-18-16-50-9-27z" />
<path transform="translate(1091,211)" d="m0 0 2 1 18 49 21 57 11 30 15 41 22 60 8 21 6 16 28 15 30 15 19 10 27 14 6 7 11 24 7 14 13 28 16 34 1 4h51l16 8 21 12 50 28 14 9 3 5 14 41 15 45 9 29 12 36 4 8 48 52 9 10 11 12 12 13 9 10 13 14h101l2 1 8 36 22 101 16 74 5 35 3 22 5 14 13 26 11 23 16 33 8 16 11 14 13 15 9 11 11 13 9 11 11 13 2 3v3h-103l-2-2-17-77-4-5-8-7-15-15-8-7-16-15-5-4v-2l-4-2-8-8-2-13-8-59-22-166-3-24v-5l-5-1-151-48-4-5-14-30-17-37-15-33-19-41-19-42-12-27-1 5v54l1 18v19l-2 5-4 5h-2v2h-2l-2 4-14 15-4 5-5 5-6 7-4 4h-2v2h-2l-7 14-19 60-11 35-10 31-9 27-2 4h-2v-164l16-34 17-36 18-38 1-2 1-53-12-13-7-8-18-18-9-11-18-18v-2h-2l-7-8-12-12-7-8-10-10-7-8-12-13-7-8-18-18-5-6-11-9-119-84-18-13-8-6-1-1-1-45v-113l-10 8-14 12-15 13-11 10-5 4-7 17-18 40-11 25-10 23 1 6 11 25 27 63 7 16v7l-15 44-25 70-3 2h-50l11-31 11-29 6-17 14-38v-5l-25-13-22-12-31-16-19-10-5-3h-3l-8 11-9 11-8 10-13 16-7 10-12 23-16 33-23 46v7l18 55 11 35 12 36 10 32 1 10-1 43v60l-1 2h-54l-1-1-1-113-87-87-7-8-6-7-3-1-14 47-34 112-1 3-4-2-12-14-7-7-9-11-10-10-8-10-4-2-2 4-5 6h-2l-2 4-13 14-6 8h-2v2h-2l-2 4-13 14-1 2h-2l-2 4-15 16-7 8-9 10-14 16-19 10-20 9-39 18-27 12-3 1v54l-6 8-11 12-7 8-10 11-7 8-8 9-1 13v150l-1 2-4-2-11-12-11-11-7-8-7-7-2-1v-2h-2v-2h-2l-4-5h-3l-13 76-10 59-8 47-2 2h-105l1-8 31-153 5-9 7-8 20-26 13-17 12-15 12-16 12-15 12-16 11-14 1-112 3-7 8-17 9-17 11-23 12-25 9-17 2-2 103-1 16-17 9-11 11-12 14-16 11-7 26-14 23-13 23-12 14-8 5-7 7-14 12-22 15-29 10-18 7-14 4-6 23-13 26-14 29-16 22-12 8-10 10-16 13-20 15-23 11-17 13-20 7-11 17-26 11-17 3-5 10-6 39-20 19-10 29-15 5-3 33-55 13-22 24-40 13-22 16-26 9-10 43-43z" />
<path transform="translate(407,1072)" d="m0 0h130l4 2v425l-1 2h-133l-1-1v-427z" />
<path transform="translate(794,1549)" d="m0 0 5 1 15 2 13 4 10 6 8 7 6 10 5 13 2 18v9l-3 18-4 10-6 10-11 11-14 7-16 4h-64l-1-6v-120l1-2h37l16-1zm-22 16-3 2-1 39v22l1 34 1 2 3 1h20l10-3 8-5 7-8 4-8 3-11 1-7v-21l-2-10-5-12-8-8-10-5-11-2z" />
<path transform="translate(1383,1550)" d="m0 0h21l15 3 12 5 14 10 9 12 5 11 3 16v10l-2 15-4 12-9 14-9 9-14 8-12 4-7 1h-27l-16-4-14-7-10-9-7-10-5-11-2-9-1-14 2-15 4-13 6-11 9-10 7-6 9-5 11-4zm6 13-9 2-10 7-6 8-4 8-4 13-1 9v16l3 14 4 10 7 9 10 6 6 2h14l12-5 8-7 6-11 3-9 2-12v-20l-3-14-6-12-8-8-11-5z" />
<path transform="translate(1898,1497)" d="m0 0h20l11 4 10 6 1 1-1 9-5 18-1 2-4-2-7-13-6-5-3-1h-12l-6 3-5 6-3 10 1 10 6 10 9 8 17 12 10 9 7 10 5 14 1 5v27l-4 15-6 10-11 11-8 4-12 3h-10l-16-4-12-6-1-1 1-10 4-22 2-3 4 2 8 16 5 6 8 3h8l9-4 6-8 2-13-2-11-4-6-10-9-16-11-10-9-6-7-5-10-3-12v-23l3-13 6-12 7-9 10-7z" />
<path transform="translate(1536,1552)" d="m0 0h19l11 13 9 11 12 13 7 8 11 12 12 13 11 11v-81h18l1 3-1 7-1 21v72l1 22-2 2h-15l-8-7-8-10-9-10-7-8-9-10-9-11-13-13-7-8-7-7v49l1 34-1 1-16-1z" />
<path transform="translate(130,1504)" d="m0 0h71l1 5-1 12h-40l-1 59h40l1 1v13l-1 2h-39l-1 67 40-2 1 1 1 14-1 3h-70l-1-4z" />
<path transform="translate(438,1552)" d="m0 0h57l10 3 9 6 6 8 3 8 1 6v11l-2 8-3 6-7 8-12 6-15 3-16 1v29l1 22-1 1h-31zm31 13-1 3v43h9l10-5 4-7 1-5v-14l-3-8-5-5-8-2z" />
<path transform="translate(264,1552)" d="m0 0h37l20 40 3-1 16-28 5-11h24l-2 4-6 8-11 16-8 12-7 11-3 5 1 6 16 29 13 23 6 10v3h-35l-3-5-12-26-6-12h-2l-6 11-18 32h-22l2-5 12-17 10-15 13-20 1-3-7-14-14-24-12-21-5-6z" />
<path transform="translate(595,1551)" d="m0 0h68l2 1-1 16-4 1-36-1-1 37 40-1 1 1v16l-4 1-25-1-12-1v43l41-2 1 7v10l-1 1h-71l1-38v-60l-1-29z" />
<path transform="translate(1728,1551)" d="m0 0h71l-1 12 1 5-5 1-24-1h-13l-1 37h41l1 3-1 13h-28l-13-1v43l42-2v13l1 5h-72v-127z" />
<path transform="translate(1097,1550)" d="m0 0h24l16 3 10 4-1 9-3 14-4-1-7-7-10-6-8-2h-9l-12 3-9 6-7 9-4 8-3 13-1 7v11l3 15 4 10 4 6 2 4h2v2l12 6 7 2h15l11-3 10-6 5-4h3l-1 9-2 9-5 4-13 4-7 1h-27l-16-4-12-6-10-8v-2h-2l-8-11-5-12-2-9v-21l4-15 7-14 9-10 8-7 14-7 11-3z" />
<path transform="translate(1218,1552)" d="m0 0h30l2 1-1 26v75l1 23-1 1h-31z" />
<path transform="translate(932,1552)" d="m0 0h31l1 4-2 42v40l2 40-6 1h-25l-1-1z" />
</svg>
