<?xml version="1.0" encoding="UTF-8"?>
<svg version="1.1" viewBox="0 0 2048 2048" width="1280" height="1280" xmlns="http://www.w3.org/2000/svg">
<path transform="translate(426,546)" d="m0 0h35l40 3 43 8 24 6 35 12 15 6 39 19 16 9 34 23 12 9 11 10 11 9 7 7 8 7 12 12 9 11 11 12 11 14 28 42 12 23 13 26 10 27 11 34 7 33 4 23 3 36 1 16v16l-2 26-4 26-7 31-9 38-12 39-10 31-12 34-15 39-14 36-17 40-11 26-13 30-17 36-9 20-18 38-16 32-8 17-8 16-9 17-7 14-12 22-18 35-2 4 9 1 26 7 21 6 38 13 29 13 16 8 23 13 17 12 13 10 12 11 8 8 7 8 16 24 8 19 4 9 13 2 10 5 9 10 4 10 1 4-1 13-6 12-5 5-7 5-15 4-8 1-8 17-13 19-10 11-7 8-11 10-13 10-16 11-20 12-27 13-25 11-38 13-27 8-60 13-43 6-44 5-16 1-5 1h-125v-1l-50-6-35-5-36-7-29-7-29-8-37-13-34-15-26-14-17-11-16-12-13-11-16-16-13-17-9-16-5-11-6-19-1-1v-42l3-9 7-19 8-15 12-16 9-11 7-7 8-7 10-9 30-20 14-8 24-12 21-9 42-15 53-14-4-10-15-29-12-22-21-41-8-16-12-25-16-32-11-24-24-52-22-51-17-40-11-28-13-34-11-29-12-36-12-37-7-24-13-56-5-28-2-8v-67l5-35 9-45 14-43 8-20 23-46 32-48 3-4h2l2-4 9-10 9-11 12-13 9-9 8-7 15-13 14-12 33-22 17-11 40-20 19-8 43-14 27-6 32-6 23-2zm0 69-25 2-32 5-32 8-29 10-19 8-16 8-17 9-19 12-14 10-18 14-11 10-8 7-18 18-7 8-12 14-8 11-10 14-9 15-10 17-11 23-7 17-8 22-9 34-6 36-2 27v30l3 26 6 32 11 43 12 39 14 38 10 29 11 30 15 36 17 41 14 33 18 39 11 24 17 37 16 33 32 64 14 27 13 23 17 32 12 22 15 26 17 28 10 17 13 21 11 13 13 9 11 5 8 2 9 1h9l13-2 15-6 14-10 8-9 11-17 19-32 21-35 12-22 13-24 10-18 15-28 10-19 51-102 15-33 16-34 15-33 15-36 12-29 15-36 13-35 20-56 12-36 10-35 8-33 5-29 3-35-2-37-6-39-9-35-12-33-15-32-16-27-8-12-12-16-8-10-13-14-7-8-9-9-8-7-12-11-19-14-14-10-27-16-28-14-29-11-19-6-28-7-33-5-26-2zm-141 1094-41 9-25 7-33 11-33 14-22 12-11 7-18 13-18 18-10 16-4 12-1 6v8l3 12 8 15 12 14 10 9 15 11 13 8 40 20 15 6 36 12 18 5 48 11 39 6 43 5 38 2 24 1h26l61-3 43-5 39-6 52-12 20-6 31-11 13-5 31-15 12-6 18-12 14-11 12-12 9-13 5-13 1-5v-13l-4-14-9-15-16-17-13-10-18-12-26-14-36-15-34-11-36-9-25-5-9 16-34 56-9 12-9 10-11 10-13 9-19 10-18 6-20 4h-32l-20-4-19-7-17-9-11-8-12-11-9-9-13-18-32-54-8-13z"/>
<path transform="translate(1705)" d="m0 0h74v1l26 5 28 7 29 11 25 12 23 14 19 14 11 9 12 11 8 7 7 8 11 12 15 20 9 14 10 17 12 24 8 21 6 21 6 26 2 12 2 1v73h-2l-8 39-6 23-12 38-12 34-11 27-14 34-17 41-7 15-16 34-14 29-9 20-4 8 3 3 20 10 16 10 16 11 13 11 8 7 16 16 10 13 11 17 9 19 9 27h1v52h-2l-2 12-6 18-7 15-8 14-10 14-9 11h-2l-2 4-17 16-20 15-25 15-21 11-30 12-26 8-30 7-31 5-30 3h-51l-38-3-44-8-19-5-36-12-28-13-19-10-19-13-11-8-10-9-8-7-14-14-15-20-11-20-8-21-1-7-12-1-10-4-8-7-6-8-3-11v-8l3-10 6-9 8-7 11-4 11-1 3-9 5-13 10-19 10-16 13-16 9-11 13-12 15-12 15-10 21-11 13-6-3-9-18-37-13-28-13-27-17-41-16-39-11-27-12-34-9-27-10-36-7-35-3-26v-24l2-24 5-28 7-26 10-27 9-20 10-18 14-21 12-16 9-10 7-8 16-16 8-7 18-14 13-9 25-15 28-13 26-9 27-7 25-4zm19 69-25 3-26 6-22 8-25 12-18 11-19 14-16 15-8 8-7 8-10 13-10 15-9 16-9 19-7 19-6 24-3 17-1 10v36l4 25 11 41 9 29 20 55 18 43 11 26 11 24 18 39 11 23 29 58 6 10 6 12 12 22 6 10 6 11 17 29 14 23 4 5 10 7 6 2h17l9-4 6-4 6-7 24-40 14-24 16-30 12-21 37-74 13-28 16-35 13-30 14-34 6-14 7-20 9-24 12-37 11-41 4-23 1-11v-21l-2-20-5-26-8-26-9-21-13-23-12-17-9-11-14-15-13-12-16-12-19-12-15-8-24-10-20-6-25-5-19-2zm-127 676-20 10-19 12-14 11-10 9-10 11-10 14-6 13-4 12-1 6v23l5 17 9 17 8 10 20 20 20 14 10 6 31 15 24 8 20 6 41 7 34 3h28l29-2 32-5 24-5 36-12 26-12 13-7 23-16 6-5v-2l4-2v-2h2l7-8 8-9 8-14 5-12 3-16v-12l-3-16-5-13-8-14-11-14-10-10-17-13-16-10-23-12-4-1-6 10-6 11-30 52-8 13-5 9-9 11-9 10-18 13-20 8-18 4-16 1-21-3-17-6-13-7-13-10-8-8-11-14-14-24-30-52-8-14-3-4z"/>
<path transform="translate(433,716)" d="m0 0h22l23 2 24 4 26 7 19 7 16 7 22 12 15 10 17 13 14 12 15 15 7 8 13 17 10 15 10 17 10 21 9 25 6 22 4 22 2 24v27l-2 24-5 27-7 24-10 25-8 16-9 16-12 17-12 16h-2l-2 4-7 8h-2l-2 4-8 7-11 10-16 12-15 10-22 12-20 9-27 9-26 6-20 3-14 1h-32l-19-2-23-4-26-7-21-8-25-12-18-11-14-10-14-11-17-16-7-7-7-8-12-15-12-18-12-21-10-22-9-27-6-26-3-22-1-13v-26l2-22 4-24 7-26 10-26 12-24 8-13 12-17 11-14 15-16 8-8 8-7 17-13 15-10 19-11 24-11 27-9 20-5 27-4zm-8 70-22 3-23 6-20 8-24 13-13 9-14 12-10 8-11 13-11 14-6 9-7 12-8 16-6 15-6 21-4 24v41l4 24 6 22 9 21 8 14 6 11 8 11 12 14 9 10 13 11 14 11 18 10 19 10 27 9 21 4 21 2h17l21-2 20-4 14-4 16-6 27-14 12-8 13-11 10-8 10-10 8-10 11-14 13-24 7-14 6-18 4-16 3-19 1-15v-14l-2-22-5-25-8-24-14-27-9-14-11-13-9-11-7-7-25-20-24-13-16-8-21-7-25-5-10-1z"/>
<path transform="translate(1733,136)" d="m0 0h16l26 3 27 8 21 10 15 9 17 14 11 10 9 11 9 12 13 24 6 16 5 17 3 20 1 11v12l-3 26-5 19-5 15-13 25-7 10-11 13-7 8-14 12-15 11-23 12-24 8-11 3-26 3h-17l-25-3-29-9-16-8-18-10-14-12-10-9-11-12-10-13-12-22-5-11-8-26-3-24v-23l3-25 8-26 8-17 9-16 13-16 8-10 15-13 14-10 18-10 13-6 27-8zm4 69-21 3-15 5-17 9-11 9-5 5-9 10-8 13-6 13-5 19-1 9v15l2 14 7 21 8 14 8 10 7 8 13 10 17 9 15 5 21 3h9l19-3 15-5 19-10 14-12 9-10 7-11 7-14 5-18 2-20-2-18-6-20-10-19-11-13-11-10-11-7-14-7-16-5-18-2z"/>
<path transform="translate(1091,826)" d="m0 0h12l9 3 6 4 5 5 4 5 4 9 1 11-4 13-6 8-7 6-30 14-9 6-18 13-8 4-5 1h-12l-10-3-9-7-7-11-2-6v-14l3-9 7-9 11-10 17-12 18-10 16-7z"/>
<path transform="translate(1994,1379)" d="m0 0h16l10 4 10 9 5 10 6 25 4 22 2 9h1v32l-3 3-7 10-7 6-11 4-10 1-13-4-8-6-6-8-4-11-3-21-4-24-4-19v-16l4-10 9-10 10-5z"/>
<path transform="translate(1631,1808)" d="m0 0h69l11 4 10 9 5 8 2 6v15l-7 14-7 7-12 5-23 2h-53l-13-3-9-6-7-8-4-8-1-4v-11l4-12 5-7 10-7 8-3z"/>
<path transform="translate(1227,1808)" d="m0 0h52l18 1 11 4 10 9 6 12 1 5v9l-3 9-5 8-7 7-10 4-12 2h-65l-10-2-10-5-8-8-5-10-1-4v-12l4-11 7-9 10-6 6-2z"/>
<path transform="translate(1428,1808)" d="m0 0h53l18 1 12 5 6 5 6 9 3 8 1 8-3 13-8 11-9 6-10 3-7 1h-65l-14-3-10-7-7-9-3-8-1-10 3-12 7-10 9-7 9-3z"/>
<path transform="translate(985,980)" d="m0 0h8l12 3 9 7 5 6 5 12 6 32 12 32v13l-3 9-6 8-7 6-9 4-5 1h-10l-10-3-8-6-6-7-10-21-7-21-4-19-2-20 2-12 5-10 5-6 10-6z"/>
<path transform="translate(1025,1808)" d="m0 0h53l17 1 11 4 6 4v2h2l6 9 3 8v14l-4 10-7 9-10 6-15 3h-66l-13-3-9-6-6-7-4-8-1-3v-16l4-10 8-9 8-5 7-2z"/>
<path transform="translate(1889,1211)" d="m0 0h15l10 4 9 7 13 12 14 14 9 11 11 13 6 11 1 4v13l-3 9-8 11-10 6-8 2h-12l-11-4-10-9-12-14-11-12-21-21-7-11-2-8v-8l3-10 5-8 5-5 7-5z"/>
<path transform="translate(1878,1738)" d="m0 0 10 1 9 4 7 5 7 10 3 10v10l-4 11-8 10-12 9-21 14-18 10-15 8-11 3-10-1-10-4-8-7-4-5-4-9-1-4v-10l4-12 6-8 15-10 23-13 20-14 12-6z"/>
<path transform="translate(1991,1577)" d="m0 0h8l11 3 10 7 7 10 3 10-1 13-4 13-11 26-11 22-9 14-8 7-13 5h-11l-13-5-7-6-6-10-3-10v-8l4-12 15-30 10-24 7-13 8-7 10-4z"/>
<path transform="translate(1103,1123)" d="m0 0h18l25 2 36 1 13 4 9 7 6 9 2 6 1 8-2 12-6 10-7 7-9 4-9 2h-48l-20-2-11-3-10-5-8-8-5-10-1-3v-13l4-11 7-9 10-6z"/>
<path transform="translate(1707,1129)" d="m0 0h18l36 7 28 8 10 5 9 8 5 9 2 6v12l-4 10-4 6-9 8-11 4h-12l-21-5-25-6-25-5-8-4-6-5-7-11-2-6v-13l4-11 6-8 9-6z"/>
<path transform="translate(1248,818)" d="m0 0h17l38 1 11 4 8 6 6 8 3 7 1 4v11l-4 11-6 8-8 6-10 3-9 1h-65l-14-3-10-7-7-10-3-9v-11l4-11 4-6 9-8 11-4z"/>
<path transform="translate(1510,1126)" d="m0 0h76l10 3 9 6 7 9 3 8 1 4v9l-4 12-7 9-7 5-15 4h-72l-11-3-9-6-6-7-4-8-1-4v-13l4-11 6-8 9-6z"/>
<path transform="translate(1308,1126)" d="m0 0h76l10 3 9 6 7 8 4 11v13l-3 8-6 9-7 6-11 4-7 1h-70l-12-3-8-6-7-8-4-9-1-5v-7l4-13 3-5h2l2-4 9-6z"/>
<path transform="translate(2047,879)" d="m0 0"/>
<path transform="translate(2047,824)" d="m0 0"/>
</svg>
